<?xml version="1.0" standalone="no"?>
<!DOCTYPE svg PUBLIC "-//W3C//DTD SVG 20010904//EN"
 "http://www.w3.org/TR/2001/REC-SVG-20010904/DTD/svg10.dtd">
<svg version="1.0" xmlns="http://www.w3.org/2000/svg"
 width="1013.000000pt" height="605.000000pt" viewBox="0 0 1013.000000 605.000000"
 preserveAspectRatio="xMidYMid meet">
<metadata>
Created by potrace 1.15, written by Peter Selinger 2001-2017
</metadata>
<g transform="translate(0.000000,605.000000) scale(0.100000,-0.100000)"
fill="#000000" stroke="none">
<path d="M4255 5509 l-890 -529 -512 0 -513 0 0 -304 0 -304 -92 -54 c-51 -30
-289 -171 -528 -313 -859 -510 -1566 -929 -1632 -968 -37 -21 -70 -42 -72 -46
-3 -4 55 -42 127 -86 73 -43 240 -145 372 -226 199 -122 1012 -592 1672 -968
l152 -86 1 -327 0 -328 565 0 c536 0 568 -1 603 -19 20 -10 399 -227 842 -481
722 -414 807 -460 825 -449 84 53 1167 717 1310 803 99 60 192 117 207 127 26
18 57 19 643 19 l615 0 0 353 1 352 337 200 c1378 817 1844 1097 1835 1106 -4
4 -494 307 -1088 672 l-1080 665 -3 331 -2 331 -535 0 -535 0 -861 530 c-474
292 -864 530 -868 529 -3 0 -406 -239 -896 -530z m150 -577 c292 -108 512
-323 641 -625 44 -103 114 -347 114 -398 0 -58 16 -47 24 16 8 67 49 202 85
275 52 106 153 286 189 335 144 201 317 330 538 404 l92 31 926 0 926 0 0
-680 0 -680 -952 -2 -953 -3 -67 -27 c-182 -73 -340 -234 -400 -406 -19 -57
-23 -87 -23 -197 0 -154 17 -216 95 -341 85 -138 208 -238 350 -287 65 -22 65
-22 1008 -25 l942 -3 0 -669 0 -670 -846 0 c-814 0 -850 1 -947 21 -307 62
-563 231 -716 471 -184 291 -238 423 -257 629 l-8 84 -13 -105 c-15 -122 -38
-201 -100 -354 -55 -137 -100 -217 -175 -317 -133 -177 -301 -297 -516 -369
-179 -60 -181 -60 -1138 -60 l-874 0 0 670 0 669 958 3 c875 3 962 5 1016 21
98 29 176 77 257 157 128 127 188 280 189 476 0 106 -31 230 -83 329 -47 90
-155 194 -247 238 -143 68 -124 67 -1160 67 l-930 0 0 373 c0 277 3 376 12
385 9 9 9 12 0 12 -9 0 -12 72 -12 295 l0 296 983 -3 982 -3 90 -33z"/>
</g>
</svg>
